<?xml version="1.0" encoding="UTF-8"?>
<svg id="Layer_1" data-name="Layer 1" xmlns="http://www.w3.org/2000/svg" viewBox="0 0 1432.1 1012.59">
  <defs>
    <style>
      .cls-1 {
        fill: #d3071a;
      }

      .cls-2 {
        fill: #18212b;
      }
    </style>
  </defs>
  <g>
    <g>
      <path class="cls-2" d="m645.89,467.84c9.5-11.38,15.5-24.15,17.98-38.17,7.36-38.59-19.56-70.93-58.08-70.52h-179.77l-32.9,186.56h72.74l8.03-45.53h64.97l27.09,45.53h77.46l-31.45-52.33c13.22-5.69,24.59-14.3,33.93-25.54Zm-54.9-38.17c-.76,4.3-2.95,8.05-6.7,11.24-3.59,3.06-7.61,4.58-12.05,4.58h-88.7l5.6-31.79h88.7c8.88,0,14.72,7.08,13.15,15.96Z"/>
      <path class="cls-2" d="m1129.37,409.26c6.14-32.48-18.09-50.11-50.46-49.97h-177.41l-12.04,68.29h-119.45c-28.73,0-33.53-6.66-32.14-14.57.18-1.01.47-2.04.89-3.05h132.09c.48-1.94.99-4.03,1.35-6.11,4.5-25.54-8.77-40.81-46.63-46.5-11.62-1.8-25.88-2.78-42.68-2.78-71.63,0-100.91,15.69-106.83,49.28-2.96,16.79,2.63,29.15,16.81,36.92-33.17,8.61-40.08,32.07-43.14,49.42-3.86,23.46,6.59,60.25,98.65,60.11,91.62,0,115.55-36.51,119.71-60.11l4.72-26.79h10.34l-14.54,82.45h191.15c32.06,0,62.64-17.49,67.97-50.11,4.14-23.46-7.18-39.56-27.08-46.36,14.82-8.47,25.57-22.21,28.73-40.12Zm-320.98,71.49c-1.86,10.55-18.29,17.91-50.91,17.91s-42.06-7.08-40.15-17.91c1.88-10.69,13.33-17.35,46.37-17.35h47.75l-3.06,17.35Zm158.04-77.18h84.26c6.25,0,10.28,6.25,9.18,12.49-1.1,6.25-7.36,12.63-13.61,12.63h-84.26l4.43-25.13Zm94.2,85.37c-1.1,6.25-7.34,12.49-13.59,12.49h-97.87l4.41-24.99h97.87c6.25,0,10.28,6.25,9.18,12.5Z"/>
    </g>
    <g>
      <polygon class="cls-1" points="396.35 420.88 407.24 359.14 334.67 359.14 323.78 420.88 396.35 420.88"/>
      <polygon class="cls-1" points="392.19 444.51 393.91 434.72 321.34 434.72 319.62 444.51 392.19 444.51"/>
      <polygon class="cls-1" points="388.02 468.13 389.75 458.34 317.18 458.34 315.45 468.13 388.02 468.13"/>
      <polygon class="cls-1" points="313.01 481.96 301.77 545.71 374.34 545.71 385.58 481.96 313.01 481.96"/>
    </g>
  </g>
  <g>
    <path class="cls-2" d="m353.44,618.08c-.65,3.7-2.27,7-4.86,9.89-2.59,2.89-5.65,4.98-9.2,6.26l8.67,14.41h-15.41l-7.26-13.31h-24.8l-2.35,13.31h-14.62l8.43-47.82h47.18c3.18,0,5.94.78,8.27,2.33,2.34,1.55,4.05,3.64,5.14,6.25,1.09,2.61,1.36,5.5.8,8.68Zm-48.64-6.65l-2.35,13.31h28.57c1.83,0,3.5-.65,5.02-1.96,1.52-1.3,2.45-2.87,2.77-4.7.32-1.83-.05-3.39-1.11-4.7-1.06-1.31-2.51-1.96-4.33-1.96h-28.57Z"/>
    <path class="cls-2" d="m404.84,600.82l17.22,47.82h-16.23l-3.26-9.96h-30.1l-6.77,9.96h-16.23l34.09-47.82h21.28Zm-5.43,28.15l-6.59-20.35-13.8,20.35h20.39Z"/>
    <path class="cls-2" d="m491.24,648.65h-19.11l-27.33-38.11-6.72,38.11h-14.59l8.43-47.82h24.34l22.89,33.45,5.9-33.45h14.62l-8.43,47.82Z"/>
    <path class="cls-2" d="m555.46,600.82c4.29,0,7.96,1.05,10.99,3.15,3.03,2.1,5.22,4.95,6.57,8.56,1.34,3.61,1.62,7.67.82,12.21-.8,4.55-2.51,8.64-5.13,12.24-2.62,3.61-5.81,6.45-9.58,8.54-3.77,2.09-7.81,3.13-12.1,3.13h-45.16l8.43-47.82h45.16Zm-10.55,37.22c3.53,0,6.63-1.24,9.29-3.72,2.65-2.48,4.33-5.68,5.02-9.59.69-3.91.14-7.11-1.64-9.57-1.78-2.47-4.44-3.7-7.98-3.7h-26.58l-4.69,26.58h26.58Z"/>
    <path class="cls-2" d="m639.95,623.56c1.46.62,2.71,1.46,3.75,2.54,1.04,1.08,1.78,2.39,2.22,3.93.44,1.54.48,3.32.13,5.34-.43,2.44-1.28,4.51-2.54,6.21-1.26,1.7-2.76,3.07-4.5,4.11-1.74,1.04-3.59,1.8-5.56,2.26-1.97.46-3.86.69-5.69.69h-52.49l8.43-47.82h48.5c1.83,0,3.64.24,5.44.71,1.8.47,3.39,1.23,4.76,2.26,1.37,1.03,2.39,2.4,3.05,4.09.66,1.7.78,3.77.35,6.21-.37,2.09-1.07,3.91-2.11,5.48-1.04,1.57-2.29,2.89-3.76,3.99Zm-13.83,15.44c1.26,0,2.43-.47,3.52-1.41,1.09-.94,1.75-2.07,1.99-3.4.23-1.33-.03-2.46-.79-3.4-.76-.94-1.77-1.4-3.03-1.4h-34.52l-1.69,9.61h34.52Zm1.05-28.54h-30.53l-1.69,9.61h30.53c1.26,0,2.43-.47,3.52-1.41,1.09-.94,1.75-2.07,1.99-3.4.23-1.33-.03-2.46-.79-3.4-.76-.94-1.77-1.4-3.03-1.4Z"/>
    <path class="cls-2" d="m706.25,619.5l-1.85,10.5h-55.97l1.85-10.5h55.97Z"/>
    <path class="cls-2" d="m736.1,649.78c-11.36,0-19.5-1.91-24.4-5.73-4.9-3.82-6.66-9.63-5.29-17.44l4.55-25.8h14.55l-4.2,23.81c-.49,2.8-.38,5.07.33,6.81.71,1.74,1.77,3.11,3.16,4.09,1.39.98,2.93,1.69,4.63,2.12,1.69.43,3.32.68,4.88.76,1.56.08,2.82.12,3.77.12s2.22-.04,3.81-.12c1.59-.08,3.31-.34,5.15-.76,1.84-.43,3.63-1.13,5.37-2.12,1.74-.98,3.27-2.35,4.6-4.09,1.33-1.74,2.24-4.01,2.73-6.81l4.2-23.81h14.55l-4.55,25.8c-1.38,7.81-5.19,13.62-11.44,17.44-6.25,3.82-15.05,5.73-26.42,5.73Z"/>
    <path class="cls-2" d="m853.84,600.82l-29.02,23.91,20.59,23.91h-18.36l-16.09-17.93h-14.59l-3.16,17.93h-14.62l8.43-47.82h14.62l-3.16,17.93h14.59l22.41-17.93h18.36Z"/>
    <path class="cls-2" d="m864.05,636.94l-2.06,11.67h-15.16l2.06-11.67h15.16Z"/>
    <path class="cls-2" d="m898.74,639.22c1.04,0,2.46-.05,4.24-.16s3.69-.44,5.71-1c2.02-.56,3.94-1.48,5.75-2.76,1.81-1.28,3.29-3.07,4.43-5.37h14.91c-2.03,6.52-6.1,11.46-12.22,14.82-6.12,3.36-14.35,5.04-24.69,5.04-11.32,0-19.4-2.02-24.25-6.05-4.85-4.03-6.59-9.94-5.22-17.72l.46-2.63c1.37-7.78,5.19-13.69,11.47-17.72,6.27-4.03,15.07-6.05,26.38-6.05,10.34,0,17.98,1.68,22.92,5.04,4.94,3.36,7.27,8.29,7,14.79h-14.91c-.33-2.28-1.18-4.06-2.55-5.34-1.36-1.28-2.96-2.2-4.78-2.76-1.82-.56-3.61-.89-5.36-1-1.75-.11-3.14-.16-4.19-.16-.95,0-2.22.04-3.81.12-1.59.08-3.3.34-5.13.77-1.83.43-3.61,1.13-5.35,2.1-1.74.97-3.26,2.33-4.58,4.07-1.32,1.74-2.22,4-2.71,6.78l-.23,1.32c-.49,2.78-.38,5.03.32,6.78.7,1.74,1.75,3.11,3.14,4.09,1.39.98,2.93,1.69,4.61,2.12,1.68.43,3.3.68,4.86.76,1.56.08,2.82.12,3.77.12Z"/>
    <path class="cls-2" d="m1005.85,626.05c-1.37,7.76-5.19,13.65-11.46,17.69-6.27,4.03-15.07,6.05-26.38,6.05s-19.43-2.02-24.27-6.05c-4.84-4.03-6.58-9.93-5.21-17.69l.46-2.63c1.37-7.78,5.19-13.69,11.45-17.72,6.26-4.03,15.06-6.05,26.4-6.05s19.4,2.02,24.25,6.05c4.85,4.03,6.59,9.94,5.22,17.72l-.46,2.63Zm-52.69-.68c-.49,2.78-.38,5.04.32,6.78s1.75,3.11,3.14,4.09c1.39.99,2.93,1.69,4.61,2.12,1.68.43,3.3.68,4.86.76,1.56.08,2.82.12,3.77.12s2.21-.04,3.79-.12c1.58-.08,3.29-.34,5.14-.76,1.84-.43,3.63-1.13,5.37-2.12,1.74-.98,3.27-2.35,4.58-4.09,1.32-1.74,2.22-4,2.71-6.78l.23-1.32c.49-2.78.38-5.04-.32-6.78-.7-1.74-1.75-3.1-3.14-4.07-1.39-.97-2.94-1.67-4.63-2.1-1.69-.43-3.31-.68-4.87-.77-1.55-.08-2.8-.12-3.75-.12s-2.22.04-3.81.12-3.3.34-5.13.77c-1.83.43-3.61,1.13-5.35,2.1-1.74.97-3.26,2.33-4.58,4.07-1.32,1.74-2.22,4-2.71,6.78l-.23,1.32Z"/>
    <path class="cls-2" d="m1083.32,600.82h21.64l-8.43,47.82h-14.62l6.33-35.9-32.59,35.9h-7.26l-19.93-35.9-6.33,35.9h-14.59l8.43-47.82h21.63l17.68,29.32,28.05-29.32Z"/>
  </g>
</svg>